<?xml version="1.0" encoding="UTF-8" standalone="no"?>
<svg
   viewBox="0 0 81.081116 105.59961"
   width="40.540558"
   height="52.799805"
   version="1.1"
   id="svg1"
   xmlns="http://www.w3.org/2000/svg"
   xmlns:svg="http://www.w3.org/2000/svg">
  <defs
     id="defs1" />
  <path
     d="m 40.081114,0 c -16.5,0 -30,13.5 -30,30 0,5.3 1.399609,10.499609 4.099609,15.099609 0,0.6 -0.09961,1.300391 -0.09961,1.900391 0,14.3 11.7,26 26,26 8.8,0 16.499219,-4.4 21.199219,-11 8.2,-0.1 14.800781,-6.8 14.800781,-15 0,-1.8 -0.300391,-3.499609 -0.900391,-5.099609 C 78.780724,39.200391 81.081114,34.9 81.081114,30 c 0,-8.3 -6.7,-15 -15,-15 -5.2,-9 -14.9,-15 -26,-15 z m 18.023438,29.603516 c 0.653906,0.02109 1.314453,0.247265 1.876953,0.697265 1.2,0.9 1.399609,2.598438 0.599609,3.898438 -0.6,1 -1.200391,1.90039 -1.900391,2.90039 -0.4,0.6 -0.598828,1.3 -0.298828,2 1.2,2.7 1.79961,5.8 1.59961,9 -0.5,10.2 -8.9,18.400391 -19,18.900391 -11.4,0.5 -20.900391,-8.7 -20.900391,-20 0,-1.1 0.9,-1.900391 2,-1.900391 h 7.099609 c 3.1,0 6.401172,-0.40039 9.701172,-1.40039 6.6,-2 11.998828,-5.999219 15.298828,-10.699219 0.4,-0.6 0.801172,-1.200391 1.201172,-1.900391 0.5625,-1 1.632813,-1.53125 2.722657,-1.496093 z M 40.081114,78 c -16.4,0 -31.5992192,8.899609 -39.69921918,23.09961 -0.8,1.4 -0.30039,3.29961 1.09960998,4.09961 1.4,0.8 3.299609,0.30039 4.099609,-1.09961 C 12.681114,91.69961 25.881114,84 40.081114,84 c 14.2,0 27.4,7.69961 34.5,20.09961 0.6,1 1.59961,1.5 2.59961,1.5 0.5,0 1,-0.10039 1.5,-0.40039 1.4,-0.8 1.89961,-2.69961 1.09961,-4.09961 C 71.680333,86.899609 56.481114,78 40.081114,78 Z"
     id="path1"
     style="fill:#ffffff" />
</svg>
