<?xml version="1.0" encoding="UTF-8" standalone="no"?>
<svg
   viewBox="0 0 80.162231 96.699219"
   width="40.081116"
   height="48.349609"
   version="1.1"
   id="svg1"
   xmlns="http://www.w3.org/2000/svg"
   xmlns:svg="http://www.w3.org/2000/svg">
  <defs
     id="defs1" />
  <path
     d="M 32.081114,3.75e-7 C 19.381114,3.75e-7 9.0811138,10.3 9.0811138,23 c 0,1.7 1.3000002,3 3.0000002,3 h 5.199219 0.201172 c 11.5,0 23.199609,0 31.599609,-7.5 v 0.09961 c 0.4,-0.4 0.799609,-0.699609 1.099609,-1.099609 1.1,-1.2 3.001172,-1.400782 4.201172,-0.300782 1.3,1.1 1.399219,3.100391 0.199219,4.400391 L 53.180723,23 c -1.3,1.3 -0.799609,3.499218 0.900391,4.199218 1,0.4 2.099219,0.601172 3.199219,0.701172 1.5,0.2 2.701172,1.4 2.701172,3 v 6.798828 c 0.1,10.5 -7.9,19.600391 -18.5,20.400391 -11.6,0.8 -21.300391,-8.400391 -21.400391,-19.900391 0,-1.6 -1.200781,-2.999609 -2.800781,-3.099609 -1.7,-0.1 -3.199219,1.3 -3.199219,3 0,14.3 11.7,26 26,26 13.9,0 25.3,-10.899219 26,-24.699219 v -0.300781 -14 -3 -1 c 0,-7.2 -5.400391,-13.1003906 -12.400391,-13.9003906 l -0.40039,-0.599609 C 50.380333,2.4996094 45.581114,3.75e-7 40.581114,3.75e-7 Z m 8,69.099608625 c -16.4,0 -31.5992192,8.899609 -39.69921918,23.09961 -0.8,1.4 -0.30039,3.29961 1.09960998,4.09961 0.5,0.3 1,0.40039 1.5,0.40039 1,0 2.099609,-0.5 2.599609,-1.5 7.1000002,-12.4 20.3000002,-20.09961 34.5000002,-20.09961 14.2,0 27.4,7.69961 34.5,20.09961 0.8,1.4 2.69961,1.89961 4.09961,1.09961 1.4,-0.8 1.89961,-2.69961 1.09961,-4.09961 -8.100001,-14.200001 -23.29922,-23.09961 -39.69922,-23.09961 z"
     id="path1"
     style="fill:#ffffff" />
</svg>
