<?xml version="1.0" encoding="UTF-8"?>
<svg version="1.1" xmlns="http://www.w3.org/2000/svg" width="512" height="512">
<path d="M0 0 C4.39966022 2.01358525 8.80810199 4.00779309 13.21582031 6.00366211 C14.12506256 6.41582977 15.03430481 6.82799744 15.97109985 7.25265503 C24.67047467 11.18966511 33.41097107 15.02992069 42.16116333 18.85235596 C47.23415359 21.07022814 52.3021912 23.29940098 57.3709259 25.52697754 C61.85772803 27.49794035 66.34689809 29.46324413 70.83984375 31.42016602 C75.52738167 33.46278226 80.20782988 35.52093032 84.8840332 37.58935547 C86.66107541 38.3722098 88.44051291 39.14965157 90.22241211 39.92138672 C92.68635335 40.98938288 95.14116613 42.07613411 97.59472656 43.16772461 C98.32392303 43.47845413 99.05311951 43.78918365 99.80441284 44.10932922 C104.04244986 46.02377569 106.35596974 47.63607201 108.19628906 51.96069336 C108.60280464 55.94454598 108.42649699 58.62225485 106.19628906 61.96069336 C103.65039063 63.56835937 103.65039063 63.56835937 100.33691406 65.15209961 C99.72551575 65.44637344 99.11411743 65.74064728 98.48419189 66.0438385 C89.735557 70.20623845 80.83053421 74.03707015 71.94628906 77.89819336 C69.31088538 79.04750191 66.67594668 80.1978701 64.0411377 81.34854126 C62.31196314 82.10334192 60.58239425 82.85723991 58.85241699 83.61019897 C54.54455207 85.4872266 50.24552418 87.38137744 45.95996094 89.30883789 C45.12885803 89.68198624 44.29775513 90.05513458 43.44146729 90.43959045 C41.86492386 91.14892751 40.289777 91.86137919 38.71624756 92.57737732 C33.41683155 94.96069336 33.41683155 94.96069336 31.19628906 94.96069336 C31.21985474 96.66829834 31.21985474 96.66829834 31.24389648 98.41040039 C31.29887382 102.7006908 31.33288147 106.99095122 31.36108398 111.28149414 C31.37601819 113.12594873 31.39637301 114.97036879 31.42260742 116.81469727 C31.75756115 140.99704264 26.66892635 161.48370385 9.62597656 179.61694336 C-4.98423307 193.71039316 -23.68919531 200.52478533 -43.88452148 200.31469727 C-64.10189462 199.61916241 -82.98364153 190.65290307 -96.80371094 175.96069336 C-112.31233466 156.8635046 -115.36587832 136.25672956 -114.99121094 112.39819336 C-114.97610749 110.69312731 -114.96242928 108.98804803 -114.95019531 107.28295898 C-114.91770508 103.17519943 -114.86625052 99.06810073 -114.80371094 94.96069336 C-115.35437729 94.78813522 -115.90504364 94.61557709 -116.47239685 94.43778992 C-121.94201255 92.67628114 -127.13184001 90.58972236 -132.33886719 88.16772461 C-133.10299423 87.81683273 -133.86712128 87.46594086 -134.65440369 87.10441589 C-137.06037913 85.99837531 -139.4633196 84.88591577 -141.86621094 83.77319336 C-143.51119561 83.01560265 -145.15637627 82.25843736 -146.80175781 81.50170898 C-150.80468813 79.65960676 -154.80491276 77.81174737 -158.80371094 75.96069336 C-158.79482849 76.98720001 -158.78594604 78.01370667 -158.77679443 79.07131958 C-158.69565227 88.75261136 -158.63571848 98.433834 -158.59646225 108.11538887 C-158.57560156 113.09261388 -158.54731156 118.06956403 -158.50195312 123.04663086 C-158.45844134 127.85122244 -158.4345624 132.6555499 -158.42420197 137.46032333 C-158.41682018 139.29194165 -158.40240515 141.12354577 -158.38079071 142.95505142 C-158.35168552 145.52381701 -158.34775785 148.09149602 -158.34960938 150.66040039 C-158.32803772 151.79220985 -158.32803772 151.79220985 -158.30603027 152.94688416 C-158.3461433 158.10173892 -159.57851289 160.97842171 -162.80371094 164.96069336 C-166.64015026 168.34578688 -170.43803402 168.47702233 -175.36621094 168.30834961 C-179.05237737 167.78259831 -181.09355042 166.47254945 -183.80371094 163.96069336 C-187.09162578 158.80763788 -187.22571132 154.54684993 -187.17260742 148.63818359 C-187.1763739 147.71874969 -187.18014038 146.7993158 -187.184021 145.85202026 C-187.19043852 143.86319941 -187.19013751 141.87434788 -187.18383598 139.88552666 C-187.1747117 136.73720206 -187.18496425 133.58947118 -187.20045471 130.44117737 C-187.24052376 121.49302055 -187.24175349 112.5449113 -187.23950195 103.59667969 C-187.23945089 98.11722955 -187.25859866 92.6381011 -187.28883553 87.15873909 C-187.29966899 84.05812528 -187.28752699 80.95812293 -187.27500916 77.85752869 C-187.28391227 75.95628248 -187.29398619 74.05504127 -187.30541992 72.15380859 C-187.29567642 71.29289108 -187.28593292 70.43197357 -187.27589417 69.54496765 C-187.338842 64.30302113 -188.08856677 61.90807849 -191.80371094 57.96069336 C-192.29084462 53.98243497 -192.02982203 51.29340984 -189.80371094 47.96069336 C-187.20947266 46.33105469 -187.20947266 46.33105469 -183.85839844 44.73022461 C-183.24245819 44.43388626 -182.62651794 44.13754791 -181.99191284 43.83222961 C-174.57798735 40.30461293 -167.0433848 37.03522998 -159.51177979 33.76885986 C-155.00099487 31.81185219 -150.49607027 29.84145119 -145.99121094 27.87084961 C-144.60278488 27.26373138 -144.60278488 27.26373138 -143.18630981 26.64434814 C-133.4031188 22.35941147 -123.66349773 17.97923231 -113.92871094 13.58569336 C-112.25329099 12.83040565 -110.57783559 12.07519658 -108.90234375 11.32006836 C-102.82213837 8.57918453 -96.74243872 5.83718793 -90.66503906 3.09008789 C-55.59559359 -12.75261042 -35.48401037 -16.24513461 0 0 Z " fill="#FFFFFF" transform="translate(220.8037109375,80.039306640625)"/>
<path d="M0 0 C0.6909375 -0.02835937 1.381875 -0.05671875 2.09375 -0.0859375 C9.25592431 1.28603745 14.08285905 6.60548948 18.90234375 11.66015625 C20.30117631 13.09204699 21.70027292 14.52367982 23.09960938 15.95507812 C25.27407328 18.19783951 27.44424883 20.44452045 29.60913086 22.6965332 C31.71669999 24.88291229 33.83972786 27.05334782 35.96484375 29.22265625 C36.91991066 30.23054955 36.91991066 30.23054955 37.89427185 31.25880432 C42.39986163 35.83780628 46.85109875 39.16501714 53.55699158 39.46791077 C61.98306046 38.83469196 67.09955405 33.03213287 72.62109375 27.30859375 C73.98214674 25.92225587 75.34348354 24.53619658 76.70507812 23.15039062 C78.82634152 20.97949267 80.94425955 18.8055271 83.05688477 16.6262207 C85.11105591 14.5114292 87.17766644 12.40943068 89.24609375 10.30859375 C89.86922958 9.65853867 90.49236542 9.00848358 91.13438416 8.33872986 C96.07653428 3.34098805 100.21803601 0.66352431 107.41015625 0.03125 C111.83893197 0.21857625 115.77852008 1.41073965 119.9375 2.875 C120.71101807 3.14127197 121.48453613 3.40754395 122.28149414 3.68188477 C151.50585156 14.04607849 178.93304027 32.4073039 192.875 60.875 C198.3867646 73.65923179 201.34782933 88.72032125 196.9375 102.3125 C192.44145298 112.78231579 185.28750012 119.39693835 174.95380783 123.93091583 C170.18096276 125.68776884 165.77905613 125.79998216 160.73516846 125.76940918 C159.7812486 125.77550028 158.82732873 125.78159139 157.84450221 125.78786707 C154.66346471 125.80445174 151.48282948 125.79972764 148.30175781 125.79492188 C146.0146544 125.8022649 143.72755469 125.81085181 141.44046021 125.82058716 C135.23781382 125.84278921 129.03530034 125.84573441 122.83261967 125.84383965 C117.64894266 125.84371986 112.46529374 125.85228732 107.28162456 125.86061716 C94.34862669 125.88094617 81.41571506 125.88200316 68.48270807 125.87481004 C57.27180597 125.86923836 46.06113266 125.89004752 34.85028401 125.92317051 C23.31929821 125.95697293 11.78844983 125.97159388 0.25741076 125.96745348 C-6.20845437 125.96538876 -12.67409171 125.97082268 -19.13991547 125.99534607 C-25.22380681 126.01765873 -31.30722331 126.0156972 -37.3911171 125.99541855 C-39.61786648 125.99201636 -41.8446481 125.99706326 -44.07135391 126.01140213 C-70.43824437 126.16941026 -70.43824437 126.16941026 -80.9765625 116.09375 C-89.16808175 106.85203598 -92.17258108 97.43859677 -91.83984375 85.140625 C-89.75204818 62.00689021 -77.64791566 43.78822903 -60.49609375 28.77734375 C-45.1151367 16.44450335 -20.27380642 0.37824266 0 0 Z " fill="#FFFFFF" transform="translate(125.5,298.625)"/>
<path d="M0 0 C3.53776331 1.61613527 7.07753882 3.22784292 10.6171875 4.83984375 C11.95800636 5.45196968 11.95800636 5.45196968 13.32591248 6.07646179 C19.48622237 8.88283482 25.67403216 11.61915256 31.8828125 14.31640625 C33.53967475 15.03929041 35.19649525 15.76227028 36.85327148 16.48535156 C39.21891251 17.51738063 41.58578887 18.54570512 43.95828247 19.56188965 C46.13703182 20.49570217 48.30912722 21.44364775 50.48046875 22.39453125 C51.11514069 22.66157364 51.74981262 22.92861603 52.40371704 23.20375061 C56.59029108 25.05790238 59.49907359 27.23694184 62.4375 30.75 C62.6328125 33.84375 62.6328125 33.84375 61.4375 36.75 C58.9296875 38.59375 58.9296875 38.59375 55.3125 40.25 C54.64323486 40.56259766 53.97396973 40.87519531 53.28442383 41.19726562 C51.67688035 41.94189206 50.06372486 42.67445871 48.44677734 43.3984375 C45.51016722 44.71736283 42.58670197 46.06191209 39.66479492 47.41296387 C36.15547333 49.0339323 32.64046575 50.64241049 29.125 52.25 C28.42461609 52.57121826 27.72423218 52.89243652 27.00262451 53.22338867 C24.98759759 54.14477955 22.96906551 55.05798204 20.94921875 55.96875 C19.76803467 56.50435547 18.58685059 57.03996094 17.36987305 57.59179688 C14.4375 58.75 14.4375 58.75 11.4375 58.75 C11.46106567 59.62567627 11.46106567 59.62567627 11.48510742 60.51904297 C11.54832028 63.22092595 11.58675923 65.92265259 11.625 68.625 C11.65013672 69.5428125 11.67527344 70.460625 11.70117188 71.40625 C11.84906231 85.40654442 6.36232955 96.36744627 -3.1171875 106.45703125 C-12.9501058 115.6773556 -25.16698343 119.34042787 -38.40429688 119.15673828 C-44.15021879 118.93743819 -49.24219989 118.00353411 -54.5625 115.75 C-55.23152344 115.49476563 -55.90054688 115.23953125 -56.58984375 114.9765625 C-68.20677197 109.96173012 -77.26026946 99.01077417 -82 87.5 C-84.8381367 78.32134514 -83.8920673 68.24660864 -83.5625 58.75 C-84.26914795 58.63664307 -84.9757959 58.52328613 -85.70385742 58.40649414 C-88.81593802 57.69179735 -91.40679257 56.5924949 -94.30078125 55.24609375 C-95.36748047 54.75302734 -96.43417969 54.25996094 -97.53320312 53.75195312 C-99.18739258 52.97754883 -99.18739258 52.97754883 -100.875 52.1875 C-101.99712891 51.66736328 -103.11925781 51.14722656 -104.27539062 50.61132812 C-107.04002951 49.32900626 -109.80225766 48.04175153 -112.5625 46.75 C-112.55583817 47.30266037 -112.54917633 47.85532074 -112.54231262 48.42472839 C-112.47587517 54.18356501 -112.43066458 59.94229252 -112.39770508 65.70141602 C-112.38263085 67.84989851 -112.36216811 69.9983503 -112.33618164 72.14672852 C-112.29973886 75.23721908 -112.28275981 78.32730231 -112.26953125 81.41796875 C-112.25404739 82.37648239 -112.23856354 83.33499603 -112.22261047 84.32255554 C-112.22136893 89.25687321 -112.24456474 92.79177029 -115.5625 96.75 C-119.00991547 98.47370774 -122.79285339 98.25306672 -126.5625 97.75 C-129.06410818 95.87379387 -130.18195652 94.51108697 -131.5625 91.75 C-131.67152373 90.03503962 -131.71885795 88.31599223 -131.73608398 86.59765625 C-131.75631874 84.98588501 -131.75631874 84.98588501 -131.77696228 83.34155273 C-131.78740067 82.17696533 -131.79783905 81.01237793 -131.80859375 79.8125 C-131.84152149 77.36718378 -131.87473331 74.92187136 -131.90820312 72.4765625 C-131.9557215 68.60516905 -132.00016387 64.73379225 -132.03930664 60.86230469 C-132.07886982 57.13720648 -132.13044307 53.41242555 -132.18359375 49.6875 C-132.1920079 48.5229126 -132.20042206 47.3583252 -132.20909119 46.15844727 C-132.22573318 45.08393311 -132.24237518 44.00941895 -132.25952148 42.90234375 C-132.26982895 41.95351318 -132.28013641 41.00468262 -132.29075623 40.02709961 C-132.34809704 37.55217971 -132.34809704 37.55217971 -134.5625 35.75 C-134.9375 32.875 -134.9375 32.875 -134.5625 29.75 C-131.34950593 25.60774248 -127.23208857 24.00175117 -122.5390625 22.01953125 C-121.33630676 21.49743073 -121.33630676 21.49743073 -120.10925293 20.96478271 C-117.47232068 19.82201951 -114.8300227 18.69226818 -112.1875 17.5625 C-108.46713049 15.95686117 -104.74931482 14.34534196 -101.03125 12.734375 C-99.60814011 12.11949974 -99.60814011 12.11949974 -98.15628052 11.49220276 C-91.67043612 8.68430211 -85.21696241 5.81146096 -78.78125 2.890625 C-77.92461761 2.50271286 -77.06798523 2.11480072 -76.18539429 1.71513367 C-72.88604588 0.22033288 -69.58697711 -1.27483909 -66.29473877 -2.7852478 C-40.1993838 -14.75077113 -25.55390791 -11.75860015 0 0 Z " fill="#FFFFFF" transform="translate(420.5625,174.25)"/>
<path d="M0 0 C2.58289423 2.65086513 5.00504276 5.40216776 7.4140625 8.2109375 C15.00270542 17.53801058 15.00270542 17.53801058 25.29614258 22.78222656 C31.00639335 22.85115549 33.89188288 20.46866726 37.92578125 16.59765625 C39.88283218 14.5978744 41.78809975 12.55441427 43.6875 10.5 C45.14955767 8.95260541 46.61735247 7.41108609 48.09037781 5.87413025 C49.41921601 4.48248579 50.73217222 3.07572703 52.04418945 1.66821289 C55.2693695 -1.41846042 57.22037889 -2.46502307 61.66015625 -2.83984375 C65.6911724 -2.53889512 69.08372392 -1.58695335 72.8125 -0.125 C73.50061768 0.14231934 74.18873535 0.40963867 74.89770508 0.68505859 C93.7281176 8.27027304 109.82551851 19.31645336 118.64453125 38.1484375 C122.3438348 47.27251481 123.80659571 56.75080349 120.4453125 66.18359375 C117.21152339 72.99343432 112.35611948 76.80898133 105.375 79.4375 C102.40665305 80.31134257 99.77039625 80.56125045 96.67999268 80.55775452 C95.74052292 80.55912918 94.80105316 80.56050385 93.83311462 80.56192017 C92.80956375 80.55832489 91.78601288 80.55472961 90.73144531 80.55102539 C89.64821487 80.55117142 88.56498444 80.55131744 87.44892883 80.5514679 C83.86697388 80.550771 80.28507087 80.54298895 76.703125 80.53515625 C74.22019479 80.53329128 71.73726421 80.53186775 69.2543335 80.53086853 C63.38603191 80.52743995 57.51774951 80.51955769 51.64945579 80.50951904 C44.31187978 80.49723974 36.97430268 80.49187297 29.63671875 80.48632812 C16.54946969 80.47560176 3.46223603 80.45872486 -9.625 80.4375 C-9.76022064 79.54533279 -9.89544128 78.65316559 -10.03475952 77.73396301 C-10.21326447 76.56338852 -10.39176941 75.39281403 -10.57568359 74.18676758 C-10.75215424 73.02647537 -10.92862488 71.86618317 -11.11044312 70.67073059 C-14.80472359 47.45763015 -26.76327017 30.25954332 -42.625 13.4375 C-38.69813098 9.00044721 -34.75399159 6.71307588 -29.375 4.3125 C-28.61574219 3.96775635 -27.85648437 3.6230127 -27.07421875 3.26782227 C-24.93173456 2.30659839 -22.78142981 1.36694045 -20.625 0.4375 C-19.70203125 0.03660156 -18.7790625 -0.36429687 -17.828125 -0.77734375 C-11.70520219 -3.13314916 -5.76367092 -3.4307565 0 0 Z " fill="#FFFFFF" transform="translate(357.625,316.5625)"/>
</svg>
