<?xml version="1.0" encoding="UTF-8" standalone="no"?>
<!-- Created with Inkscape (http://www.inkscape.org/) -->

<svg
   width="194.41203mm"
   height="141.32372mm"
   viewBox="0 0 194.41203 141.32372"
   version="1.1"
   id="svg1"
   xmlns="http://www.w3.org/2000/svg"
   xmlns:svg="http://www.w3.org/2000/svg">
  <defs
     id="defs1" />
  <g
     id="layer1"
     transform="translate(-8.663562,-33.340373)">
    <text
       xml:space="preserve"
       style="font-weight:bold;font-size:22.5778px;font-family:'Helvetica Rounded LT Std';-inkscape-font-specification:'Helvetica Rounded LT Std Bold';fill:#ffffff;fill-opacity:0;fill-rule:evenodd;stroke:#ffffff;stroke-width:1;stroke-opacity:1"
       x="43.390736"
       y="50.694595"
       id="text9"><tspan
         id="tspan9"
         style="font-size:22.5778px;fill:#ffffff;fill-opacity:0;stroke:#ffffff;stroke-width:1;stroke-opacity:1"
         x="43.390736"
         y="50.694595">l</tspan></text>
    <text
       xml:space="preserve"
       style="font-weight:bold;font-size:22.5778px;font-family:'Helvetica Rounded LT Std';-inkscape-font-specification:'Helvetica Rounded LT Std Bold';fill:#ffffff;fill-opacity:0.00749374;fill-rule:evenodd;stroke:#ffffff;stroke-width:1;stroke-opacity:1"
       x="41.435703"
       y="77.707977"
       id="text18"><tspan
         id="tspan18"
         style="fill:#ffffff;fill-opacity:0.00749374;stroke:#ffffff;stroke-width:1;stroke-opacity:1"
         x="41.435703"
         y="77.707977">3</tspan></text>
    <text
       xml:space="preserve"
       style="font-weight:bold;font-size:22.5778px;font-family:'Helvetica Rounded LT Std';-inkscape-font-specification:'Helvetica Rounded LT Std Bold';fill:#ffffff;fill-opacity:0;fill-rule:evenodd;stroke:#ffffff;stroke-width:1;stroke-opacity:1"
       x="24.671314"
       y="95.069748"
       id="text19"><tspan
         id="tspan19"
         style="fill:#ffffff;fill-opacity:0;stroke:#ffffff;stroke-width:1;stroke-opacity:1"
         x="24.671314"
         y="95.069748">r</tspan></text>
    <text
       xml:space="preserve"
       style="font-weight:bold;font-size:22.5778px;font-family:'Helvetica Rounded LT Std';-inkscape-font-specification:'Helvetica Rounded LT Std Bold';fill:#ffffff;fill-opacity:0.0109679;fill-rule:evenodd;stroke:#ffffff;stroke-width:1;stroke-opacity:1"
       x="8.3477621"
       y="116.4194"
       id="text20"><tspan
         id="tspan20"
         style="fill:#ffffff;fill-opacity:0.0109679;stroke:#ffffff;stroke-width:1;stroke-opacity:1"
         x="8.3477621"
         y="116.4194">g</tspan></text>
    <text
       xml:space="preserve"
       style="font-weight:bold;font-size:22.5778px;font-family:'Helvetica Rounded LT Std';-inkscape-font-specification:'Helvetica Rounded LT Std Bold';fill:#ffffff;fill-opacity:0;fill-rule:evenodd;stroke:#ffffff;stroke-width:1;stroke-opacity:1"
       x="19.036295"
       y="60.192352"
       id="text21"><tspan
         id="tspan21"
         style="fill:#ffffff;fill-opacity:0;stroke:#ffffff;stroke-width:1;stroke-opacity:1"
         x="19.036295"
         y="60.192352">h</tspan></text>
    <text
       xml:space="preserve"
       style="font-weight:bold;font-size:22.5778px;font-family:'Helvetica Rounded LT Std';-inkscape-font-specification:'Helvetica Rounded LT Std Bold';fill:#ffffff;fill-rule:evenodd;stroke:#ffaa05;stroke-width:1"
       x="27.286219"
       y="124.84592"
       id="text22"><tspan
         id="tspan22"
         style="stroke-width:1"
         x="27.286219"
         y="124.84592">s</tspan></text>
    <text
       xml:space="preserve"
       style="font-weight:bold;font-size:22.5778px;font-family:'Helvetica Rounded LT Std';-inkscape-font-specification:'Helvetica Rounded LT Std Bold';fill:#ffffff;fill-opacity:0;fill-rule:evenodd;stroke:#ffffff;stroke-width:1;stroke-opacity:1"
       x="189.58896"
       y="87.93145"
       id="text23"><tspan
         id="tspan23"
         style="fill:#ffffff;fill-opacity:0;stroke:#ffffff;stroke-width:1;stroke-opacity:1"
         x="189.58896"
         y="87.93145">b</tspan></text>
    <text
       xml:space="preserve"
       style="font-weight:bold;font-size:22.5778px;font-family:'Helvetica Rounded LT Std';-inkscape-font-specification:'Helvetica Rounded LT Std Bold';fill:#ffffff;fill-opacity:0;fill-rule:evenodd;stroke:#ffffff;stroke-width:1;stroke-opacity:1"
       x="153.40215"
       y="158.24454"
       id="text24"><tspan
         id="tspan24"
         style="fill:#ffffff;fill-opacity:0;stroke:#ffffff;stroke-width:1;stroke-opacity:1"
         x="153.40215"
         y="158.24454">6</tspan></text>
    <text
       xml:space="preserve"
       style="font-weight:bold;font-size:22.5778px;font-family:'Helvetica Rounded LT Std';-inkscape-font-specification:'Helvetica Rounded LT Std Bold';fill:#ffffff;fill-opacity:0;fill-rule:evenodd;stroke:#ffffff;stroke-width:1;stroke-opacity:1"
       x="102.85133"
       y="76.531944"
       id="text25"><tspan
         id="tspan25"
         style="fill:#ffffff;fill-opacity:0;stroke:#ffffff;stroke-width:1;stroke-opacity:1"
         x="102.85133"
         y="76.531944">9</tspan></text>
    <text
       xml:space="preserve"
       style="font-weight:bold;font-size:22.5778px;font-family:'Helvetica Rounded LT Std';-inkscape-font-specification:'Helvetica Rounded LT Std Bold';fill:#ffffff;fill-opacity:0.0112809;fill-rule:evenodd;stroke:#ffffff;stroke-width:1;stroke-opacity:1"
       x="136.78923"
       y="152.00179"
       id="text26"><tspan
         id="tspan26"
         style="fill:#ffffff;fill-opacity:0.0112809;stroke:#ffffff;stroke-width:1;stroke-opacity:1"
         x="136.78923"
         y="152.00179">f</tspan></text>
    <text
       xml:space="preserve"
       style="font-weight:bold;font-size:22.5778px;font-family:'Helvetica Rounded LT Std';-inkscape-font-specification:'Helvetica Rounded LT Std Bold';fill:#ffffff;fill-opacity:0;fill-rule:evenodd;stroke:#ffffff;stroke-width:1;stroke-opacity:1"
       x="78.833771"
       y="76.901001"
       id="text27"><tspan
         id="tspan27"
         style="fill:#ffffff;fill-opacity:0;stroke:#ffffff;stroke-width:1;stroke-opacity:1"
         x="78.833771"
         y="76.901001">z</tspan></text>
    <text
       xml:space="preserve"
       style="font-weight:bold;font-size:22.5778px;font-family:'Helvetica Rounded LT Std';-inkscape-font-specification:'Helvetica Rounded LT Std Bold';fill:#ffffff;fill-opacity:0;fill-rule:evenodd;stroke:#ffffff;stroke-width:1;stroke-opacity:1"
       x="189.6644"
       y="111.04316"
       id="text28"><tspan
         id="tspan28"
         style="fill:#ffffff;fill-opacity:0;stroke:#ffffff;stroke-width:1;stroke-opacity:1"
         x="189.6644"
         y="111.04316">k</tspan></text>
    <text
       xml:space="preserve"
       style="font-weight:bold;font-size:22.5778px;font-family:'Helvetica Rounded LT Std';-inkscape-font-specification:'Helvetica Rounded LT Std Bold';fill:#ffffff;fill-opacity:0;fill-rule:evenodd;stroke:#ffffff;stroke-width:1;stroke-opacity:1"
       x="36.500141"
       y="148.45718"
       id="text30"><tspan
         id="tspan30"
         style="fill:#ffffff;fill-opacity:0;stroke:#ffffff;stroke-width:1;stroke-opacity:1"
         x="36.500141"
         y="148.45718">x</tspan></text>
    <text
       xml:space="preserve"
       style="font-weight:bold;font-size:22.5778px;font-family:'Helvetica Rounded LT Std';-inkscape-font-specification:'Helvetica Rounded LT Std Bold';fill:#ffffff;fill-opacity:0.00868829;fill-rule:evenodd;stroke:#ffffff;stroke-width:1;stroke-opacity:1"
       x="11.876307"
       y="147.19783"
       id="text31"><tspan
         id="tspan31"
         style="fill:#ffffff;fill-opacity:0.00868829;stroke:#ffffff;stroke-width:1;stroke-opacity:1"
         x="11.876307"
         y="147.19783">4</tspan></text>
    <text
       xml:space="preserve"
       style="font-weight:bold;font-size:22.5778px;font-family:'Helvetica Rounded LT Std';-inkscape-font-specification:'Helvetica Rounded LT Std Bold';fill:#ffffff;fill-opacity:0;fill-rule:evenodd;stroke:#ffffff;stroke-width:1;stroke-opacity:1"
       x="119.21978"
       y="168.97961"
       id="text32"><tspan
         id="tspan32"
         style="fill:#ffffff;fill-opacity:0;stroke:#ffffff;stroke-width:1;stroke-opacity:1"
         x="119.21978"
         y="168.97961">a</tspan></text>
    <text
       xml:space="preserve"
       style="font-weight:bold;font-size:22.5778px;font-family:'Helvetica Rounded LT Std';-inkscape-font-specification:'Helvetica Rounded LT Std Bold';fill:#ffffff;fill-opacity:0;fill-rule:evenodd;stroke:#ffffff;stroke-width:1;stroke-opacity:1"
       x="71.734039"
       y="171.23489"
       id="text33"><tspan
         id="tspan33"
         style="fill:#ffffff;fill-opacity:0;stroke:#ffffff;stroke-width:1;stroke-opacity:1"
         x="71.734039"
         y="171.23489">v</tspan></text>
    <text
       xml:space="preserve"
       style="font-weight:bold;font-size:22.5778px;font-family:'Helvetica Rounded LT Std';-inkscape-font-specification:'Helvetica Rounded LT Std Bold';fill:#ffffff;fill-opacity:0;fill-rule:evenodd;stroke:#ffffff;stroke-width:1;stroke-opacity:1"
       x="154.09898"
       y="135.84715"
       id="text34"><tspan
         id="tspan34"
         style="fill:#ffffff;fill-opacity:0;stroke:#ffffff;stroke-width:1;stroke-opacity:1"
         x="154.09898"
         y="135.84715">a</tspan></text>
    <text
       xml:space="preserve"
       style="font-weight:bold;font-size:22.5778px;font-family:'Helvetica Rounded LT Std';-inkscape-font-specification:'Helvetica Rounded LT Std Bold';fill:#ffffff;fill-opacity:0;fill-rule:evenodd;stroke:#ffffff;stroke-width:1;stroke-opacity:1"
       x="56.307465"
       y="155.19168"
       id="text35"><tspan
         id="tspan35"
         style="fill:#ffffff;fill-opacity:0;stroke:#ffffff;stroke-width:1;stroke-opacity:1"
         x="56.307465"
         y="155.19168">n</tspan></text>
    <text
       xml:space="preserve"
       style="font-weight:bold;font-size:22.5778px;font-family:'Helvetica Rounded LT Std';-inkscape-font-specification:'Helvetica Rounded LT Std Bold';fill:#ffffff;fill-opacity:0;fill-rule:evenodd;stroke:#ffffff;stroke-width:1;stroke-opacity:1"
       x="140.92911"
       y="169.48978"
       id="text36"><tspan
         id="tspan36"
         style="fill:#ffffff;fill-opacity:0;stroke:#ffffff;stroke-width:1;stroke-opacity:1"
         x="140.92911"
         y="169.48978">q</tspan></text>
    <text
       xml:space="preserve"
       style="font-weight:bold;font-size:22.5778px;font-family:'Helvetica Rounded LT Std';-inkscape-font-specification:'Helvetica Rounded LT Std Bold';fill:#ffffff;fill-opacity:0.0124573;fill-rule:evenodd;stroke:#ffffff;stroke-width:1;stroke-opacity:1"
       x="68.884621"
       y="55.928982"
       id="text37"><tspan
         id="tspan37"
         style="fill:#ffffff;fill-opacity:0.0124573;stroke:#ffffff;stroke-width:1;stroke-opacity:1"
         x="68.884621"
         y="55.928982">y</tspan></text>
    <text
       xml:space="preserve"
       style="font-weight:bold;font-size:22.5778px;font-family:'Helvetica Rounded LT Std';-inkscape-font-specification:'Helvetica Rounded LT Std Bold';fill:#ffffff;fill-opacity:0;fill-rule:evenodd;stroke:#ffffff;stroke-width:1;stroke-opacity:1"
       x="102.30936"
       y="49.303921"
       id="text38"><tspan
         id="tspan38"
         style="fill:#ffffff;fill-opacity:0;stroke:#ffffff;stroke-width:1;stroke-opacity:1"
         x="102.30936"
         y="49.303921">c</tspan></text>
    <text
       xml:space="preserve"
       style="font-weight:bold;font-size:22.5778px;font-family:'Helvetica Rounded LT Std';-inkscape-font-specification:'Helvetica Rounded LT Std Bold';fill:#ffffff;fill-opacity:0;fill-rule:evenodd;stroke:#ffffff;stroke-width:1;stroke-opacity:1"
       x="127.12669"
       y="58.05265"
       id="text39"><tspan
         id="tspan39"
         style="fill:#ffffff;fill-opacity:0;stroke:#ffffff;stroke-width:1;stroke-opacity:1"
         x="127.12669"
         y="58.05265">e</tspan></text>
    <text
       xml:space="preserve"
       style="font-weight:bold;font-size:22.5778px;font-family:'Helvetica Rounded LT Std';-inkscape-font-specification:'Helvetica Rounded LT Std Bold';fill:#ffffff;fill-opacity:0;fill-rule:evenodd;stroke:#ffffff;stroke-width:1;stroke-opacity:1"
       x="152.04045"
       y="45.945072"
       id="text40"><tspan
         id="tspan40"
         style="fill:#ffffff;fill-opacity:0;stroke:#ffffff;stroke-width:1;stroke-opacity:1"
         x="152.04045"
         y="45.945072">e</tspan></text>
    <text
       xml:space="preserve"
       style="font-weight:bold;font-size:22.5778px;font-family:'Helvetica Rounded LT Std';-inkscape-font-specification:'Helvetica Rounded LT Std Bold';fill:#ffffff;fill-opacity:0;fill-rule:evenodd;stroke:#ffffff;stroke-width:1;stroke-opacity:1"
       x="146.56526"
       y="73.306396"
       id="text41"><tspan
         id="tspan41"
         style="fill:#ffffff;fill-opacity:0;stroke:#ffffff;stroke-width:1;stroke-opacity:1"
         x="146.56526"
         y="73.306396">t</tspan></text>
    <text
       xml:space="preserve"
       style="font-weight:bold;font-size:22.5778px;font-family:'Helvetica Rounded LT Std';-inkscape-font-specification:'Helvetica Rounded LT Std Bold';fill:#ffffff;fill-opacity:0;fill-rule:evenodd;stroke:#ffffff;stroke-width:1;stroke-opacity:1"
       x="163.14256"
       y="61.430023"
       id="text42"><tspan
         id="tspan42"
         style="fill:#ffffff;fill-opacity:0;stroke:#ffffff;stroke-width:1;stroke-opacity:1"
         x="163.14256"
         y="61.430023">u</tspan></text>
    <text
       xml:space="preserve"
       style="font-weight:bold;font-size:22.5778px;font-family:'Helvetica Rounded LT Std';-inkscape-font-specification:'Helvetica Rounded LT Std Bold';fill:#ffffff;fill-opacity:0;fill-rule:evenodd;stroke:#ffffff;stroke-width:1;stroke-opacity:1"
       x="163.32185"
       y="81.457649"
       id="text43"><tspan
         id="tspan43"
         style="fill:#ffffff;fill-opacity:0;stroke:#ffffff;stroke-width:1;stroke-opacity:1"
         x="163.32185"
         y="81.457649">p</tspan></text>
    <text
       xml:space="preserve"
       style="font-weight:bold;font-size:22.5778px;font-family:'Helvetica Rounded LT Std';-inkscape-font-specification:'Helvetica Rounded LT Std Bold';fill:#ffffff;fill-opacity:0;fill-rule:evenodd;stroke:#ffffff;stroke-width:1;stroke-opacity:1"
       x="25.014435"
       y="167.29755"
       id="text44"><tspan
         id="tspan44"
         style="fill:#ffffff;fill-opacity:0;stroke:#ffffff;stroke-width:1;stroke-opacity:1"
         x="25.014435"
         y="167.29755">e</tspan></text>
    <text
       xml:space="preserve"
       style="font-weight:bold;font-size:22.5778px;font-family:'Helvetica Rounded LT Std';-inkscape-font-specification:'Helvetica Rounded LT Std Bold';fill:#ffffff;fill-opacity:0;fill-rule:evenodd;stroke:#ffffff;stroke-width:1;stroke-opacity:1"
       x="9.4863644"
       y="85.928528"
       id="text45"><tspan
         id="tspan45"
         style="fill:#ffffff;fill-opacity:0;stroke:#ffffff;stroke-width:1;stroke-opacity:1"
         x="9.4863644"
         y="85.928528">2</tspan></text>
    <text
       xml:space="preserve"
       style="font-weight:bold;font-size:22.5778px;font-family:'Helvetica Rounded LT Std';-inkscape-font-specification:'Helvetica Rounded LT Std Bold';fill:#ffffff;fill-opacity:0;fill-rule:evenodd;stroke:#ffffff;stroke-width:1;stroke-opacity:1"
       x="174.39662"
       y="134.64412"
       id="text46"><tspan
         id="tspan46"
         style="fill:#ffffff;fill-opacity:0;stroke:#ffffff;stroke-width:1;stroke-opacity:1"
         x="174.39662"
         y="134.64412">+</tspan></text>
    <text
       xml:space="preserve"
       style="font-weight:bold;font-size:22.5778px;font-family:'Helvetica Rounded LT Std';-inkscape-font-specification:'Helvetica Rounded LT Std Bold';fill:#ffffff;fill-opacity:0;fill-rule:evenodd;stroke:#ffffff;stroke-width:1;stroke-opacity:1"
       x="91.943344"
       y="170.07622"
       id="text47"><tspan
         id="tspan47"
         style="fill:#ffffff;fill-opacity:0;stroke:#ffffff;stroke-width:1;stroke-opacity:1"
         x="91.943344"
         y="170.07622">%</tspan></text>
    <g
       id="g19"
       transform="matrix(0.65846421,0,0,0.65846421,-128.67845,-10.407297)">
			<path
   style="fill:none"
   d="m 392.198,213.223 c 3.693,-0.969 7.382,-1.864 10.889,-3.366 -0.106,-0.003 -0.211,-0.001 -0.316,-0.005 -1.011,-0.04 -2.028,-0.202 -3.012,-0.358 -1.015,-0.162 -2.064,-0.329 -3.076,-0.354 -0.276,-0.007 -0.495,-0.236 -0.488,-0.512 0.007,-0.277 0.262,-0.511 0.512,-0.488 0.123,0.003 0.245,0.023 0.367,0.03 -0.382,-0.081 -0.764,-0.158 -1.145,-0.243 -1.28,1.854 -2.685,3.662 -4.247,5.424 0.172,-0.044 0.347,-0.084 0.516,-0.128 z"
   id="path15" />

			<path
   style="fill:#ffffff;fill-opacity:1"
   d="m 446.897,186.347 -0.888,-0.06 c -3.435,-0.233 -5.725,-0.613 -8.894,-1.138 l -1.304,-0.215 c -2.693,-0.441 -4.849,-1.605 -6.773,-2.84 -0.264,2.415 -3.471,4.624 -5.273,5.511 -3.556,1.749 -7.663,2.243 -11.871,2.243 -2.18,0 -4.386,-0.133 -6.558,-0.293 -15.653,-1.151 -32.049,-4.931 -51.598,-11.897 -4.542,-1.619 -9.125,-3.561 -13.558,-5.438 -10.245,-4.34 -20.839,-8.828 -31.99,-9.829 l -0.67,-0.061 c -3.105,-0.283 -6.317,-0.574 -9.345,-0.179 -0.394,0.051 -0.789,0.117 -1.185,0.185 3.04,0.535 6.045,1.279 8.977,2.206 14.962,4.731 27.978,13.763 41.235,21.883 10.238,6.27 20.875,12.048 32.084,16.374 0.653,-0.324 1.29,-0.706 1.908,-1.195 3.453,-2.727 5.944,-5.216 7.691,-9.193 0.111,-0.253 0.405,-0.367 0.659,-0.256 0.253,0.111 0.368,0.406 0.257,0.659 -1.825,4.153 -4.513,6.831 -7.987,9.576 -1.447,1.142 -2.987,1.808 -4.594,2.239 -4.772,2.033 -9.79,3.252 -14.813,4.569 -5.716,1.5 -12.225,2.339 -17.206,5.739 -4.042,2.758 -7.017,6.551 -9.027,11.03 -1.459,3.252 -2.503,6.775 -1.598,10.31 0.328,1.282 0.859,2.541 1.654,3.601 0.626,0.835 1.742,2.53 2.833,2.811 1.36,0.351 2.81,-0.956 3.94,-1.532 1.928,-0.983 3.867,-1.995 5.869,-2.834 5.868,-2.458 11.939,-4.615 17.702,-7.309 1.175,-0.549 2.349,-1.124 3.519,-1.715 0.42,-0.259 0.859,-0.531 1.322,-0.818 16.444,-10.19 25.779,-20.776 30.266,-34.326 0.086,-0.262 0.37,-0.404 0.632,-0.317 0.262,0.087 0.404,0.37 0.317,0.632 -1.597,4.822 -3.809,9.266 -6.702,13.457 0.381,0.086 0.763,0.162 1.145,0.243 0.957,0.051 1.913,0.189 2.841,0.336 0.955,0.152 1.942,0.309 2.895,0.347 0.932,0.037 1.89,0.018 2.816,-0.001 0.936,-0.019 1.904,-0.038 2.866,-0.001 1.924,0.075 3.857,0.275 5.727,0.468 2.041,0.212 4.151,0.43 6.239,0.483 0.718,0.019 1.431,0.006 2.144,-0.003 3.55,-0.298 7.084,-0.789 10.587,-1.451 3.014,-0.57 5.999,-1.259 8.961,-2.035 0.756,-0.099 1.511,-0.203 2.264,-0.317 4.604,-0.693 9.19,-1.584 13.725,-2.632 4.533,-1.048 9.038,-2.336 13.26,-4.316 1.162,-0.545 2.301,-1.141 3.408,-1.79 1.053,-0.617 2.489,-1.361 2.702,-2.701 0.026,-0.161 0.029,-0.314 0.015,-0.462 -5.03,-3.208 -11.159,-5.369 -18.733,-6.579 -3.989,-0.636 -7.828,-0.895 -11.893,-1.169 z"
   id="path16" />

			<path
   style="fill:#ffffff;fill-opacity:1"
   d="m 232.829,201.613 c -0.52,3.648 -0.651,7.35 -0.381,11.025 0.29,3.95 1.007,7.852 1.807,11.725 0.199,0.962 0.403,1.923 0.607,2.884 0.122,0.576 1.015,0.873 1.259,0.195 1.93,-5.366 6.253,-9.27 10.861,-12.394 4.576,-3.102 9.582,-5.512 14.1,-8.706 1.997,-1.412 3.88,-3.009 5.536,-4.797 0.245,-0.979 0.484,-1.966 0.674,-2.945 0.532,-2.74 0.77,-5.436 0.963,-8.64 0.545,-9.072 -2.209,-16.844 -7.756,-21.885 -0.204,-0.186 -0.219,-0.502 -0.034,-0.707 0.187,-0.205 0.503,-0.219 0.707,-0.034 1.335,1.213 2.507,2.582 3.525,4.077 0.23,-1.081 0.755,-2.009 1.268,-2.912 0.19,-0.334 0.382,-0.672 0.562,-1.023 0.127,-0.245 0.427,-0.343 0.673,-0.216 0.246,0.126 0.342,0.428 0.216,0.673 -0.187,0.363 -0.386,0.714 -0.582,1.059 -0.642,1.131 -1.249,2.2 -1.259,3.513 -10e-4,0.075 -0.02,0.145 -0.051,0.208 2.817,4.771 4.125,10.708 3.729,17.305 -0.195,3.244 -0.436,5.977 -0.979,8.771 -0.171,0.879 -0.379,1.759 -0.595,2.634 0.205,1.346 0.542,2.676 1.025,3.947 0.641,1.688 1.541,3.262 2.224,4.932 0.759,1.854 1.262,3.793 1.513,5.78 0.057,0.451 0.656,0.806 1.041,0.463 6.339,-5.633 11.33,-13.249 11.508,-21.96 0.081,-3.99 -0.895,-7.868 -2.95,-11.295 -2.104,-3.508 -5.043,-6.401 -7.476,-9.668 -1.239,-1.664 -2.332,-3.448 -3.121,-5.372 -0.288,-0.703 -0.575,-1.392 -0.809,-2.108 3.285,-3.635 9.832,-4.458 14.324,-4.66 3.08,-0.138 6.164,0.03 9.222,0.423 1.287,-0.318 2.578,-0.581 3.865,-0.749 3.137,-0.411 6.405,-0.113 9.565,0.174 l 0.67,0.061 c 11.306,1.016 21.974,5.534 32.29,9.904 4.419,1.872 8.988,3.808 13.503,5.417 19.462,6.936 35.774,10.699 51.335,11.843 6.228,0.457 12.743,0.692 17.914,-1.851 1.641,-0.807 4.957,-3.123 4.729,-5.129 -0.031,-0.274 0.166,-0.522 0.441,-0.553 0.046,-0.006 0.088,0.004 0.132,0.01 0.164,-0.126 0.393,-0.146 0.575,-0.026 1.929,1.265 4.084,2.497 6.773,2.937 l 1.305,0.216 c 3.142,0.52 5.413,0.896 8.798,1.126 l 0.888,0.06 c 4.088,0.276 7.949,0.537 11.985,1.181 7.676,1.226 13.905,3.42 19.038,6.677 0.883,-0.423 1.763,-0.856 2.589,-1.369 1.541,-0.957 2.946,-2.498 3.042,-4.399 0.098,-1.933 -1.356,-3.497 -2.205,-5.115 -0.501,-0.953 -0.902,-1.926 -1.27,-2.937 0,-0.001 0,-0.001 -10e-4,-0.001 0.025,-0.048 0.041,-0.102 0.033,-0.167 -0.121,-0.921 -0.296,-1.824 -0.508,-2.728 -0.215,-0.918 -0.629,-1.804 -1.036,-2.652 -0.832,-1.736 -1.836,-3.39 -3.001,-4.922 -2.299,-3.022 -5.191,-5.568 -8.494,-7.443 -3.981,-2.259 -8.48,-3.227 -12.917,-4.154 -4.654,-0.972 -9.291,-2.017 -13.884,-3.247 -4.659,-1.247 -9.275,-2.679 -13.787,-4.389 -4.193,-1.589 -8.462,-3.309 -12.112,-5.96 -1.75,-1.271 -3.329,-2.742 -4.635,-4.471 -1.253,-1.66 -2.285,-3.473 -3.257,-5.307 -1.931,-3.643 -3.781,-7.275 -6.442,-10.456 -5.141,-6.144 -12.206,-10.595 -19.975,-12.556 -0.969,-0.245 -1.947,-0.449 -2.933,-0.615 -0.676,-0.114 -0.909,0.704 -0.5,1.125 2.305,2.375 1.906,6.071 1.222,9.02 -0.758,3.262 -2.077,6.379 -2.012,9.787 0.022,1.124 0.242,2.23 0.662,3.256 0.76,0.483 1.533,0.948 2.326,1.376 3.017,1.631 5.933,2.647 9.381,3.67 0.265,0.079 0.416,0.357 0.337,0.622 -0.064,0.217 -0.264,0.358 -0.479,0.358 -0.047,0 -0.095,-0.006 -0.142,-0.02 -3.509,-1.042 -6.48,-2.078 -9.573,-3.749 -1.076,-0.581 -2.114,-1.23 -3.129,-1.908 -1.827,-0.846 -3.723,-1.541 -5.641,-2.156 -2.639,-0.847 -5.334,-1.538 -8.065,-2.018 -5.455,-0.96 -11.009,-1.2 -16.539,-1.19 -10.513,0.019 -21.008,0.92 -31.244,3.391 -8.124,1.961 -16.039,4.775 -23.574,8.389 -2.276,-0.642 -4.747,-0.872 -7.067,-0.997 -3.207,-0.173 -6.356,-0.743 -9.463,0.262 -3.006,0.972 -2.885,1.174 -2.291,3.794 0.489,2.16 1.539,4.094 2.854,5.876 -1.196,0.632 -2.385,1.277 -3.557,1.953 -6.242,3.599 -12.118,7.83 -17.366,12.775 -5.313,5.007 -9.887,10.762 -13.441,17.145 -3.532,6.356 -6.035,13.33 -7.063,20.537 z M 429.671,176.63 c 0.562,-0.758 1.542,-0.801 2.271,-0.585 0.23,0.067 0.412,0.183 0.558,0.275 0.057,0.036 0.107,0.072 0.154,0.09 l 0.004,0.002 c 0.385,0.155 0.695,0.488 0.832,0.89 0.13,0.385 0.091,0.785 -0.11,1.126 -0.286,0.485 -0.878,0.659 -1.441,0.659 -0.315,0 -0.621,-0.055 -0.858,-0.14 -0.334,-0.119 -1.34,-0.631 -1.571,-1.392 -0.1,-0.323 -0.042,-0.652 0.161,-0.925 z"
   id="path17" />

			<path
   style="fill:#ffffff;fill-opacity:1"
   d="m 431.416,178.006 c 0.381,0.136 1,0.088 1.102,-0.086 0.065,-0.111 0.049,-0.223 0.024,-0.297 -0.043,-0.128 -0.143,-0.236 -0.259,-0.284 -0.097,-0.039 -0.204,-0.102 -0.318,-0.174 -0.103,-0.065 -0.21,-0.133 -0.305,-0.161 -0.067,-0.02 -0.266,-0.072 -0.492,-0.072 -0.245,0 -0.521,0.061 -0.693,0.294 -0.019,0.179 0.501,0.623 0.941,0.78 z"
   id="path18" />

			<path
   style="fill:#ffffff;fill-opacity:1"
   d="m 408.453,209.851 c -0.934,-0.037 -1.885,-0.018 -2.807,0.001 -0.838,0.017 -1.7,0.028 -2.56,0.005 -3.507,1.503 -7.196,2.397 -10.889,3.366 -0.169,0.044 -0.344,0.084 -0.515,0.127 -5.001,5.643 -11.485,10.865 -19.74,15.98 -0.064,0.039 -0.119,0.073 -0.181,0.112 -0.193,1.173 -0.201,2.366 0.105,3.562 0.24,0.936 0.628,1.856 1.208,2.63 0.458,0.61 1.272,1.848 2.07,2.054 0.993,0.256 2.053,-0.699 2.878,-1.119 1.408,-0.718 2.825,-1.458 4.288,-2.07 4.287,-1.796 8.722,-3.372 12.931,-5.34 6.152,-2.876 12.301,-6.473 16.898,-11.518 1.942,-2.132 3.718,-4.45 4.986,-7.034 -1.013,-0.087 -2.019,-0.19 -3.008,-0.292 -1.855,-0.192 -3.772,-0.391 -5.664,-0.464 z"
   id="path19" />

		</g>
    <text
       xml:space="preserve"
       style="font-weight:bold;font-size:22.5778px;font-family:'Helvetica Rounded LT Std';-inkscape-font-specification:'Helvetica Rounded LT Std Bold';fill:#ffffff;fill-opacity:0;fill-rule:evenodd;stroke:#ffffff;stroke-width:1;stroke-opacity:1"
       x="67.468552"
       y="128.12296"
       id="text48"><tspan
         id="tspan48"
         style="stroke-width:1"
         x="67.468552"
         y="128.12296">r</tspan></text>
    <text
       xml:space="preserve"
       style="font-weight:bold;font-size:22.5778px;font-family:'Helvetica Rounded LT Std';-inkscape-font-specification:'Helvetica Rounded LT Std Bold';fill:#ffffff;fill-opacity:0;fill-rule:evenodd;stroke:#ffffff;stroke-width:1;stroke-opacity:1"
       x="84.686386"
       y="135.43492"
       id="text49"><tspan
         id="tspan49"
         style="stroke-width:1"
         x="84.686386"
         y="135.43492">b</tspan></text>
  </g>
</svg>
